<svg width="29" height="65" viewBox="0 0 29 65" fill="none" xmlns="http://www.w3.org/2000/svg">
<path d="M2.91667 26.25V20.4167H5.83333V8.75H2.91667V5.83333L14.5833 0L26.25 5.83333V8.75H23.3333V20.4167H26.25V26.25H22.575L4.2 36.8667L5.83333 26.25H2.91667ZM18.584 16.083C21.584 15.583 22.084 15.083 22.084 15.083C22.084 15.083 21.084 13.583 18.584 13.083C16.084 12.583 14.584 12.583 11.584 13.083C8.58398 13.583 7.08398 14.583 7.08398 14.583C7.08398 14.583 8.58398 15.583 11.584 16.083C14.584 16.583 15.584 16.583 18.584 16.083ZM0 64.1667L0.116667 63.4667L26.6875 48.125L28.2042 57.9833L17.5 64.1667H0ZM3.0625 44.2458L24.2375 32.0833L25.7542 41.9125L1.25417 56.0583L3.0625 44.2458Z" fill="black"/>
</svg>
