<svg width="304" height="76" viewBox="0 0 304 76" fill="none" xmlns="http://www.w3.org/2000/svg">
<path d="M70.4 62.152C67.872 62.152 65.728 61.848 63.968 61.24C62.208 60.664 60.784 59.928 59.696 59.032C59.408 57.624 59.2 56.264 59.072 54.952C58.944 53.608 58.88 52.312 58.88 51.064C58.88 48.216 59.168 45.56 59.744 43.096C60.32 40.632 61.088 38.408 62.048 36.424C63.04 34.408 64.128 32.68 65.312 31.24C66.496 29.8 67.68 28.68 68.864 27.88C71.264 28.872 73.44 30.472 75.392 32.68C77.376 34.888 78.944 37.56 80.096 40.696C81.28 43.8 81.872 47.256 81.872 51.064C81.872 53.496 81.568 55.544 80.96 57.208C80.352 58.84 79.216 60.072 77.552 60.904C75.92 61.736 73.536 62.152 70.4 62.152ZM67.616 57.496C68.96 57.496 70.304 57.4 71.648 57.208C72.992 57.016 74.176 56.744 75.2 56.392C75.552 54.92 75.776 53.624 75.872 52.504C76 51.384 76.064 50.184 76.064 48.904C76.064 46.376 75.856 44.056 75.44 41.944C75.024 39.832 74.416 37.928 73.616 36.232C71.536 38.152 69.76 40.28 68.288 42.616C66.816 44.92 65.68 47.32 64.88 49.816C64.112 52.312 63.728 54.76 63.728 57.16C64.304 57.288 64.912 57.384 65.552 57.448C66.224 57.48 66.912 57.496 67.616 57.496ZM91.5616 61.72L79.7056 30.376L90.6976 29.08L94.5856 53.176H95.0176L101.978 29.08L106.298 30.232L95.8816 61L91.5616 61.72ZM109.16 61.432L106.904 29.8L128.072 29.128L127.928 32.344L117.8 33.544L116.552 43.48L126.776 43.384L127.016 47.704L116.168 46.888L114.872 57.592L128.12 56.056L127.928 61L109.16 61.432ZM154.158 62.824L141.15 48.808C140.926 48.872 140.686 48.92 140.43 48.952C140.206 48.984 139.982 49.032 139.758 49.096L138.462 61.192L133.662 61.672L130.926 30.76C131.918 30.44 133.214 30.12 134.814 29.8C136.446 29.448 138.206 29.16 140.094 28.936C141.982 28.712 143.854 28.6 145.71 28.6C147.502 28.6 149.246 28.776 150.942 29.128C152.67 29.48 154.206 30.072 155.55 30.904C156.126 32.632 156.414 34.216 156.414 35.656C156.414 37.8 155.774 39.704 154.494 41.368C153.214 43.032 151.534 44.456 149.454 45.64L157.518 60.952L154.158 62.824ZM140.094 46.024C142.366 45 144.11 43.64 145.326 41.944C146.542 40.248 147.15 38.584 147.15 36.952C147.15 35.928 146.894 34.952 146.382 34.024C145.902 33.096 145.15 32.328 144.126 31.72C143.71 31.72 143.278 31.768 142.83 31.864C142.414 31.928 141.982 32.04 141.534 32.2L140.094 46.024ZM175.228 61.72L165.148 30.376L176.14 29.08L179.452 53.272H179.836L187.084 30.52L190.924 31.672L195.916 53.464H196.3L201.82 29.08L206.14 30.232L197.644 61L193.324 61.72L185.98 45.544L180.508 61L175.228 61.72ZM208.31 61.72L203.51 61L212.486 29.08L224.102 29.8L230.342 61L226.022 61.72L222.71 53.752L209.942 54.808L208.31 61.72ZM221.654 51.208L214.982 35.128H214.598L210.806 51.112L221.654 51.208ZM236.871 61.672L234.471 34.024L227.751 34.696L227.463 29.752L251.991 29.08L251.847 32.296L245.127 32.968L242.151 61.192L236.871 61.672ZM263.272 62.152C260.744 62.152 258.44 61.848 256.36 61.24C254.28 60.664 252.696 59.928 251.608 59.032C251.32 57.624 251.112 56.264 250.984 54.952C250.856 53.608 250.792 52.312 250.792 51.064C250.792 48.216 251.08 45.544 251.656 43.048C252.232 40.52 253 38.232 253.96 36.184C254.952 34.104 256.04 32.328 257.224 30.856C258.408 29.352 259.592 28.2 260.776 27.4L270.04 33.256C267.096 35.144 264.536 37.4 262.36 40.024C260.216 42.616 258.552 45.384 257.368 48.328C256.216 51.272 255.64 54.216 255.64 57.16C256.376 57.288 257.128 57.384 257.896 57.448C258.664 57.48 259.448 57.496 260.248 57.496C261.816 57.496 263.4 57.368 265 57.112C266.6 56.824 268.232 56.376 269.896 55.768L271.528 60.952C270.152 61.368 268.76 61.672 267.352 61.864C265.944 62.056 264.584 62.152 263.272 62.152ZM290.87 61.768L289.766 49.192L279.638 50.008L278.486 61.192L273.686 61.672L270.95 29.8L281.894 29.08L280.07 46.312L289.526 46.408L288.134 29.896L299.078 29.176L295.67 61.288L290.87 61.768Z" fill="white"/>
<path d="M23.3327 29.167V23.3337H26.2493V11.667H23.3327V8.75033L34.9993 2.91699L46.666 8.75033V11.667H43.7493V23.3337H46.666V29.167H42.991L24.616 39.7837L26.2493 29.167H23.3327ZM39 19C42 18.5 42.5 18 42.5 18C42.5 18 41.5 16.5 39 16C36.5 15.5 35 15.5 32 16C29 16.5 27.5 17.5 27.5 17.5C27.5 17.5 29 18.5 32 19C35 19.5 36 19.5 39 19ZM20.416 67.0837L20.5327 66.3837L47.1035 51.042L48.6202 60.9003L37.916 67.0837H20.416ZM23.4785 47.1628L44.6535 35.0003L46.1702 44.8295L21.6702 58.9753L23.4785 47.1628Z" fill="white"/>
<ellipse cx="35.5" cy="17.5" rx="0.5" ry="1.5" fill="white"/>
</svg>
